<?xml version="1.0" encoding="UTF-8"?>
<svg id="Layer_1" data-name="Layer 1" xmlns="http://www.w3.org/2000/svg" viewBox="0 0 73.67 38.16">
  <defs>
    <style>
      .cls-1 {
        fill: #fff;
      }
    </style>
  </defs>
  <g>
    <path class="cls-1" d="M1,1.5c-.28,0-.5-.22-.5-.5s.22-.5.5-.5h71.67c.28,0,.5.22.5.5s-.22.5-.5.5H1Z"/>
    <path class="cls-1" d="M72.67,0H1C.45,0,0,.45,0,1s.45,1,1,1h71.67c.55,0,1-.45,1-1s-.45-1-1-1h0Z"/>
  </g>
  <g>
    <path class="cls-1" d="M1,19.58c-.28,0-.5-.22-.5-.5s.22-.5.5-.5h71.67c.28,0,.5.22.5.5s-.22.5-.5.5H1Z"/>
    <path class="cls-1" d="M72.67,18.08H1c-.55,0-1,.45-1,1s.45,1,1,1h71.67c.55,0,1-.45,1-1s-.45-1-1-1h0Z"/>
  </g>
  <g>
    <path class="cls-1" d="M1,37.66c-.28,0-.5-.22-.5-.5s.22-.5.5-.5h71.67c.28,0,.5.22.5.5s-.22.5-.5.5H1Z"/>
    <path class="cls-1" d="M72.67,36.16H1c-.55,0-1,.45-1,1s.45,1,1,1h71.67c.55,0,1-.45,1-1s-.45-1-1-1h0Z"/>
  </g>
</svg>